<?xml version="1.0" encoding="iso-8859-1"?>
<!-- Uploaded to: SVG Repo, www.svgrepo.com, Generator: SVG Repo Mixer Tools -->
<!DOCTYPE svg PUBLIC "-//W3C//DTD SVG 1.1//EN" "http://www.w3.org/Graphics/SVG/1.1/DTD/svg11.dtd">
<svg fill="#47b2e4" version="1.1" id="Capa_1" xmlns="http://www.w3.org/2000/svg" xmlns:xlink="http://www.w3.org/1999/xlink" 
	 width="800px" height="800px" viewBox="0 0 30.609 30.609"
	 xml:space="preserve">
<g>
	<g>
		<circle cx="12.122" cy="15.337" r="5.039"/>
		<path d="M5.528,17.428l0.725-0.521c-0.139-0.513-0.22-1.047-0.22-1.602c0-3.377,2.745-6.121,6.122-6.121
			c3.376,0,6.122,2.744,6.122,6.121c0,2.554-1.574,4.746-3.803,5.662l0.609,0.643c2.377-1.107,4.032-3.515,4.032-6.304
			c0-3.838-3.124-6.961-6.961-6.961c-3.839,0-6.961,3.123-6.961,6.961C5.194,16.046,5.313,16.757,5.528,17.428z"/>
		<path d="M6.42,8.251l0.482,0.687c1.429-1.181,3.259-1.891,5.253-1.891c4.554,0,8.257,3.703,8.257,8.258
			c0,2.445-1.076,4.643-2.771,6.154l0.533,0.646c1.883-1.668,3.076-4.096,3.076-6.801c0-5.017-4.08-9.096-9.095-9.096
			C9.982,6.209,7.986,6.977,6.42,8.251z"/>
		<path d="M22.481,15.305c0,2.669-1.026,5.097-2.694,6.931l0.506,0.688c1.873-1.997,3.027-4.673,3.027-7.619
			c0-4.103-2.229-7.686-5.533-9.626l-0.611,0.609C20.338,8.057,22.481,11.433,22.481,15.305z"/>
		<path d="M3.929,25.57c2.256,1.812,5.113,2.902,8.226,2.902c7.263,0,13.167-5.908,13.167-13.168c0-5.742-3.697-10.625-8.834-12.421
			L15.95,3.578c4.946,1.606,8.534,6.251,8.534,11.727c0,6.798-5.529,12.329-12.329,12.329c-2.859,0-5.485-0.985-7.578-2.624
			L3.929,25.57z"/>
		<path d="M12.155,0C8.792,0,5.678,1.094,3.15,2.939l0.629,0.58c2.367-1.686,5.256-2.682,8.376-2.682
			c7.978,0,14.466,6.489,14.466,14.467c0,7.977-6.488,14.465-14.466,14.465c-2.568,0-4.981-0.677-7.075-1.854l-0.552,0.649
			c2.249,1.299,4.852,2.045,7.627,2.045c8.438,0,15.304-6.866,15.304-15.305S20.592,0,12.155,0z"/>
	</g>
</g>
</svg>